# xmcd
#
# Track frame offsets: 
#        150
#        21952
#        41855
#        58492
#        79870
#        103247
#        123185
#        151682
#        175285
#
# Disc length: 2672 seconds
#
# Revision: 25
# Processed by: cddbd v1.5.2PL0 Copyright (c) Steve Scherf et al.
# Submitted via: ExactAudioCopyFreeDBPlugin 1.0
#
DISCID=760a6e09
DTITLE=Tom Waits - Heartattack And Vine
DYEAR=1980
DGENRE=Rock
TTITLE0=Heartattack And Vine
TTITLE1=In Shades
TTITLE2=Saving All My Love For You
TTITLE3=Downtown
TTITLE4=Jersey Girl
TTITLE5='Til The Money Runs Out
TTITLE6=On The Nickel
TTITLE7=Mr. Siegal
TTITLE8=Ruby's Arms
EXTD=YEAR: 1980
EXTT0=
EXTT1=
EXTT2=
EXTT3=
EXTT4=
EXTT5=
EXTT6=
EXTT7=
EXTT8=
PLAYORDER=
